<?xml version="1.0" standalone="no"?><!DOCTYPE svg PUBLIC "-//W3C//DTD SVG 1.1//EN" "http://www.w3.org/Graphics/SVG/1.1/DTD/svg11.dtd"><svg t="1608473312660" class="icon" viewBox="0 0 1024 1024" version="1.1" xmlns="http://www.w3.org/2000/svg" p-id="4771" xmlns:xlink="http://www.w3.org/1999/xlink" width="300" height="300"><defs><style type="text/css"></style></defs><path d="M518.14356 1024c-10.239267 0-22.526387-2.047853-32.765654-8.191413-143.349736-79.866282-370.661461-317.417273-370.66146-612.308159 0-108.536229 43.004921-210.928897 120.823349-288.747326C313.358223 38.982527 415.750891-1.97454 526.334974 0.073313c110.584082 2.047853 210.928897 49.148481 286.699472 131.062616 77.818428 86.009842 116.727642 200.689631 108.536229 315.36942C901.092141 722.965554 684.019683 942.085865 552.957067 1015.808587c-12.28712 6.14356-22.526387 8.191413-34.813507 8.191413z m0-950.203965c-86.009842 0-167.923977 32.765654-231.407431 94.201255-63.483455 63.483455-98.296962 145.39759-98.296962 235.503138 0 262.125232 200.689631 473.054129 329.704393 546.776851 118.775496-67.579161 309.225859-264.173085 327.65654-507.867637 8.191413-96.249109-24.57424-190.450364-88.057695-260.077379-61.435601-67.579161-143.349736-104.440522-233.455285-106.488375-2.047853-2.047853-4.095707-2.047853-6.14356-2.047853z" fill="#FF8198" p-id="4772"></path><path d="M518.14356 548.898017c-83.961988 0-151.54115-67.579161-151.54115-151.541149s67.579161-151.54115 151.54115-151.54115 151.54115 67.579161 151.54115 151.54115-67.579161 151.54115-151.54115 151.541149z m0-231.407431c-43.004921 0-77.818428 34.813507-77.818428 77.818428 0 43.004921 34.813507 77.818428 77.818428 77.818428s77.818428-34.813507 77.818428-77.818428c0-40.957067-34.813507-77.818428-77.818428-77.818428z" fill="#FF8198" p-id="4773"></path></svg>